<svg xmlns="http://www.w3.org/2000/svg" width="24" height="24" viewBox="0 0 24 24"><rect width="24" height="24" fill="none"/><g fill="#ffffff"><path fill-rule="evenodd" d="M18.885 9.086C18.953 8.767 19 8.402 19 8c0-3.314-3.134-6-7-6S5 4.686 5 8c0 .718.114 1.407.371 2.046c.123.305.212.626.212.956v1.04c0 .805.653 1.458 1.459 1.458h.208c.69 0 1.25.56 1.25 1.25S9.06 16 9.75 16h4.5c.69 0 1.25-.56 1.25-1.25s.56-1.25 1.25-1.25h.208c.806 0 1.459-.653 1.459-1.458V12c0-.74.236-1.836.41-2.639zM9.5 11a1.5 1.5 0 1 0 0-3a1.5 1.5 0 0 0 0 3M16 9.5a1.5 1.5 0 1 1-3 0a1.5 1.5 0 0 1 3 0" clip-rule="evenodd"/><path d="M4.725 17.962L8.36 19l-3.635 1.038l.55 1.924L12 20.04l6.725 1.922l.55-1.924L15.64 19l3.635-1.038l-.55-1.924L12 17.96l-6.725-1.922z"/></g></svg>