<svg xmlns="http://www.w3.org/2000/svg" width="24" height="24" viewBox="0 0 24 24"><rect width="24" height="24" fill="none"/><g fill="none" fill-rule="evenodd"><path d="m12.594 23.258l-.012.002l-.071.035l-.02.004l-.014-.004l-.071-.036q-.016-.004-.024.006l-.004.01l-.017.428l.005.02l.01.013l.104.074l.015.004l.012-.004l.104-.074l.012-.016l.004-.017l-.017-.427q-.004-.016-.016-.018m.264-.113l-.014.002l-.184.093l-.01.01l-.003.011l.018.43l.005.012l.008.008l.201.092q.019.005.029-.008l.004-.014l-.034-.614q-.005-.019-.02-.022m-.715.002a.02.02 0 0 0-.027.006l-.006.014l-.034.614q.001.018.017.024l.015-.002l.201-.093l.01-.008l.003-.011l.018-.43l-.003-.012l-.01-.01z"/><path fill="#0000ff" d="M12 2c5.523 0 10 4.477 10 10s-4.477 10-10 10S2 17.523 2 12S6.477 2 12 2m1.984 12.25c-.53.468-1.223.75-1.984.75a3 3 0 0 1-1.984-.75a1 1 0 1 0-1.324 1.5A5 5 0 0 0 12 17a4.98 4.98 0 0 0 3.308-1.25a1 1 0 0 0-1.324-1.5M8.5 8c-1.087 0-1.958.68-2.394 1.552a1 1 0 0 0 1.73.997l.058-.101c.162-.324.41-.448.606-.448c.17 0 .382.095.541.336l.065.112a1 1 0 0 0 1.788-.896C10.457 8.68 9.587 8 8.5 8m7 0c-1.087 0-1.957.68-2.394 1.552a1 1 0 0 0 1.73.997l.058-.101c.162-.324.41-.448.606-.448c.17 0 .382.095.541.336l.065.112a1 1 0 1 0 1.788-.896C17.458 8.68 16.587 8 15.5 8"/></g></svg>