<?xml version="1.0" encoding="iso-8859-1"?>
<!-- Uploaded to: SVG Repo, www.svgrepo.com, Generator: SVG Repo Mixer Tools -->
<!DOCTYPE svg PUBLIC "-//W3C//DTD SVG 1.1//EN" "http://www.w3.org/Graphics/SVG/1.1/DTD/svg11.dtd">
<svg fill="#000000" version="1.1" id="Capa_1" xmlns="http://www.w3.org/2000/svg" xmlns:xlink="http://www.w3.org/1999/xlink" 
	 width="800px" height="800px" viewBox="0 0 485.15 485.149"
	 xml:space="preserve">
<g>
	<g id="Layer_2_30_">
		<path d="M375.289,326.221c-21.926-7.908-39.395-14.801-51.797-20.811c-5.736-2.779-12.756-2.473-17.25-1.168
			c-9.584,2.783-21.295,5.74-39,7c-0.027,0.002-0.066-0.014-0.099-0.018c-0.12,0.006-0.237,0.018-0.36,0.018
			c-3.037,0-5.5-2.463-5.5-5.5c0-0.041,0.006-0.078,0.006-0.119l-0.006-0.006v-15.293c0,0,0.021-0.029,0.055-0.076
			c0.117-2.701,2.182-4.895,4.826-5.213c0.055-0.016,0.111-0.039,0.162-0.043c11.396-0.961,20.278-2.674,27.416-4.416
			c3.416-0.834,3.869-5.27,3.459-7.064c-1.135-4.985-1.66-10.602-1.66-17.045c0-4.34,0.625-17.408,1.689-20.143
			c4.74-12.158,18.246-13.512,24.859-48.836c3.361-17.951,19.66-0.289,22.779-41.27c0-16.332-8.898-20.393-8.898-20.393
			s4.523-24.17,6.295-42.768C344.46,59.875,328.734,0,244.857,0c-0.193,0-0.803,0.006-1.376,0.012c-0.077,0-0.158-0.002-0.24-0.002
			s-0.163,0.002-0.24,0.002c-0.143-0.002-0.286-0.004-0.426-0.004s-0.283,0.002-0.426,0.004c-0.077,0-0.158-0.002-0.24-0.002
			s-0.163,0.002-0.24,0.002C241.096,0.006,240.486,0,240.293,0c-83.877,0-99.604,59.875-97.408,83.057
			c1.771,18.598,6.294,42.768,6.294,42.768s-8.898,4.061-8.898,20.393c3.12,40.98,19.419,23.318,22.78,41.27
			c6.613,35.324,20.119,36.678,24.86,48.836c1.063,2.734,1.689,15.803,1.689,20.143c0,6.443-0.525,12.06-1.661,17.045
			c-0.409,1.795,0.043,6.23,3.459,7.064c7.138,1.742,16.021,3.455,27.417,4.416c0.05,0.004,0.107,0.027,0.162,0.043
			c2.645,0.318,4.708,2.512,4.826,5.213c0.033,0.047,0.054,0.076,0.054,0.076v15.293l-0.006,0.006
			c0.001,0.041,0.006,0.078,0.006,0.119c0,3.037-2.463,5.5-5.5,5.5c-0.122,0-0.24-0.012-0.36-0.018
			c-0.031,0.004-0.07,0.02-0.098,0.018c-17.705-1.26-29.416-4.217-39-7c-4.494-1.305-11.515-1.611-17.25,1.168
			c-12.403,6.01-29.872,12.902-51.797,20.811c-60.62,21.855-78.095,44.148-78.095,59.354c0,15.178,0,99.574,0,99.574h210.142h0.666
			h0.666h210.141c0,0,0-84.396,0-99.574C453.382,370.369,435.908,348.076,375.289,326.221z"/>
	</g>
</g>
</svg>