<?xml version='1.0' encoding='utf-8'?>
<svg xmlns="http://www.w3.org/2000/svg" enable-background="new 0 0 2000 2000" version="1.1" viewBox="0 0 2e3 2e3"> <style type="text/css"> .st0{opacity:0.11;} .st1{fill:#FBB03B;} .st2{fill:#66251E;} .st3{fill:#8F342A;} .st4{fill:#CB483B;} .st5{fill:#ED5445;} .st6{fill:#FBC167;} .st7{fill:#E85243;} .st8{fill:#10CBD8;} .st9{fill:#13EBFA;} </style> <path class="st0" d="m1146.9 1169.2s-2.29-16.6 13.21-26.94c15.51-10.34 26.9 24.45 26.9 24.45l-40.11 2.49z"/> <path class="st1" d="m1230 1397.7c-17.78 4.73-36.71-6.62-40.96-24.52-2.84-11.95 1.21-24.04 9.67-31.97l-10.27-36.32c-5.56-26.52-10.89-42.41-16.65-58.87-4.95-16.85-9.71-28.68-11.4-40.32-2.3-11.59-4.81-22.1-7.62-31.18-2.5-8.1 1.98-16.68 10.14-18.99 7.79-2.2 15.91 2.21 18.33 9.93 4.56 14.58 8.5 28.2 10.49 38.84 2.76 22.13 9.81 43.6 18.33 64.83 6.66 14.71 12.48 37.95 18.03 63.76 11.81 2.42 21.9 11.15 25.4 23.55 5.06 17.88-5.47 36.47-23.49 41.26z"/> <path class="st0" d="m1239.4 1387.2s-32.73 8.35-37.89-12.33 5.17-36.18 5.17-36.18l-48.2-173.5-6.38 3.13 46.63 172.9-10.19 19.28 2.63 24.71 21.21 12.04h23.51l7.62-6.29-4.11-3.76z"/> <path d="m1167 1149.8c-1.83 0-3.7 0.25-5.55 0.77-5.23 1.48-9.53 4.92-12.13 9.69-2.64 4.86-3.19 10.47-1.54 15.79 2.63 8.53 5.09 18.56 7.49 30.66 1.17 8.07 3.85 16.42 6.95 26.09 1.44 4.49 2.99 9.33 4.57 14.68 6.11 17.49 11.16 32.73 16.55 58.48l9.54 33.78c-8.43 9.34-11.83 22.33-8.91 34.64 2.35 9.89 8.83 18.64 17.8 24 8.95 5.36 19.72 6.93 29.52 4.32 10.05-2.67 18.41-9.12 23.55-18.15s6.41-19.51 3.59-29.5c-3.61-12.78-13.42-22.62-26.01-26.37-4.56-20.93-10.58-45.97-17.7-61.67-10.02-24.98-15.57-44.57-17.91-63.34-1.8-9.68-5.09-21.84-10.69-39.74-2.71-8.63-10.55-14.13-19.12-14.13zm54.75 243.81c-5.07 0-10.18-1.4-14.69-4.09-6.59-3.94-11.34-10.32-13.05-17.52-2.32-9.76 0.82-20.11 8.17-27.01l2.3-2.15-11.12-39.34c-5.43-25.96-10.8-42.17-16.75-59.17-1.52-5.19-3.1-10.11-4.56-14.68-3.08-9.61-5.51-17.2-6.6-24.68-2.52-12.71-5.06-23.09-7.8-31.96-0.82-2.64-0.55-5.42 0.75-7.81 1.25-2.3 3.33-3.96 5.86-4.68 5.13-1.45 10.4 1.41 11.99 6.5 3.68 11.78 8.19 26.78 10.34 38.25 2.41 19.37 8.16 39.76 18.62 65.8 7.16 15.81 13.26 41.92 17.78 62.93l0.71 3.3 3.31 0.67c10.37 2.12 18.6 9.75 21.46 19.9 2.07 7.31 1.14 14.97-2.62 21.58-3.76 6.6-9.88 11.32-17.23 13.27-2.24 0.6-4.55 0.89-6.87 0.89z"/> <path class="st0" d="m871.31 1169.2s2.29-16.6-13.21-26.94c-15.51-10.34-26.9 24.45-26.9 24.45l40.11 2.49z"/> <path class="st1" d="m788.24 1397.7c17.78 4.73 36.71-6.62 40.96-24.52 2.84-11.95-1.21-24.04-9.67-31.97l10.27-36.32c5.56-26.52 10.89-42.41 16.65-58.87 4.95-16.85 9.71-28.68 11.4-40.32 2.3-11.59 4.81-22.1 7.62-31.18 2.5-8.1-1.98-16.68-10.14-18.99-7.79-2.2-15.91 2.21-18.33 9.93-4.56 14.58-8.5 28.2-10.49 38.84-2.76 22.13-9.81 43.6-18.33 64.83-6.66 14.71-12.48 37.95-18.03 63.76-11.81 2.42-21.9 11.15-25.4 23.55-5.06 17.88 5.48 36.47 23.49 41.26z"/> <path class="st0" d="m778.86 1387.2s32.73 8.35 37.89-12.33c5.17-20.67-5.17-36.18-5.17-36.18l48.2-173.5 6.38 3.13-46.63 172.9 10.19 19.28-2.63 24.71-21.21 12.04h-23.51l-7.62-6.29 4.11-3.76z"/> <path d="m851.19 1149.8c1.83 0 3.7 0.25 5.55 0.77 5.23 1.48 9.53 4.92 12.13 9.69 2.64 4.86 3.19 10.47 1.54 15.79-2.63 8.53-5.09 18.56-7.49 30.66-1.17 8.07-3.85 16.42-6.95 26.09-1.44 4.49-2.99 9.33-4.57 14.68-6.11 17.49-11.16 32.73-16.55 58.48l-9.54 33.78c8.43 9.34 11.83 22.33 8.91 34.64-2.35 9.89-8.83 18.64-17.8 24-8.95 5.36-19.72 6.93-29.52 4.32-10.05-2.67-18.41-9.12-23.55-18.15s-6.41-19.51-3.59-29.5c3.61-12.78 13.42-22.62 26.01-26.37 4.56-20.93 10.58-45.97 17.7-61.67 10.02-24.98 15.57-44.57 17.91-63.34 1.8-9.68 5.09-21.84 10.69-39.74 2.71-8.62 10.54-14.13 19.12-14.13zm-54.75 243.82c5.07 0 10.18-1.4 14.69-4.09 6.59-3.94 11.34-10.32 13.05-17.52 2.32-9.76-0.82-20.11-8.17-27.01l-2.3-2.15 11.12-39.34c5.43-25.96 10.8-42.17 16.75-59.17 1.52-5.19 3.1-10.11 4.56-14.68 3.08-9.61 5.51-17.2 6.6-24.68 2.52-12.71 5.06-23.09 7.8-31.96 0.82-2.65 0.55-5.42-0.75-7.81-1.25-2.3-3.33-3.96-5.86-4.68-5.13-1.45-10.4 1.41-11.99 6.5-3.68 11.78-8.19 26.78-10.34 38.25-2.41 19.37-8.16 39.76-18.62 65.8-7.16 15.81-13.26 41.92-17.78 62.93l-0.71 3.3-3.31 0.67c-10.37 2.12-18.6 9.75-21.46 19.9-2.07 7.31-1.14 14.97 2.62 21.58 3.76 6.6 9.88 11.32 17.23 13.27 2.24 0.59 4.55 0.89 6.87 0.89z"/> <path class="st0" d="m1023.7 1274.6s-2.55-16.56-20.37-22.03-18.78 31.13-18.78 31.13l39.15-9.1z"/> <path class="st1" d="m1009.5 1517.3c18.39-0.55 33.29-16.85 32.23-35.22-0.7-12.26-8.03-22.69-18.41-27.87l-0.55-37.74c-2.26-27.01-1.7-43.76-0.89-61.18-0.08-17.56 1.1-30.26-0.61-41.9-1.11-11.76-1.71-22.55-1.62-32.06 0.08-8.47-6.67-15.42-15.15-15.29-8.09 0.12-14.61 6.67-14.72 14.76-0.2 15.28-0.07 29.45 1.06 40.22 3.69 22 3.07 44.58 0.98 67.36-2.18 16-1.1 39.93 0.96 66.26-10.62 5.69-17.79 16.95-17.6 29.84 0.27 18.58 15.69 33.38 34.32 32.82z"/> <path class="st0" d="m997.48 1509.9s33.75-1.36 32.78-22.65c-0.96-21.29-15.3-33.19-15.3-33.19l-3.45-180.03 7.01 1.17 4.78 179.01 15.28 15.56 4.55 24.43-16.88 17.6-22.53 6.73-9.1-3.85 2.86-4.78z"/> <path d="m998.87 1261.8c1.76-0.52 3.61-0.82 5.54-0.85 5.43-0.08 10.54 1.99 14.39 5.82 3.92 3.9 6.05 9.12 6 14.69-0.08 8.93 0.44 19.24 1.6 31.52 1.19 8.07 1.01 16.83 0.81 26.99-0.09 4.71-0.2 9.8-0.17 15.37-0.85 18.51-1.32 34.56 0.87 60.77l0.52 35.1c10.75 6.54 17.73 18.01 18.45 30.65 0.58 10.15-3.13 20.39-10.19 28.09-7.04 7.7-16.91 12.28-27.05 12.59-10.39 0.31-20.25-3.47-27.76-10.65s-11.73-16.86-11.88-27.24c-0.19-13.27 6.39-25.52 17.37-32.71-1.62-21.36-3.01-47.08-0.69-64.15 2.46-26.8 2.17-47.16-0.96-65.81-1.04-9.79-1.37-22.38-1.13-41.14 0.13-9.08 6.06-16.59 14.28-19.04zm17.29 249.28c4.85-1.45 9.35-4.25 12.9-8.12 5.18-5.66 7.91-13.14 7.49-20.52-0.57-10.02-6.53-19.04-15.56-23.54l-2.82-1.4-0.6-40.88c-2.22-26.43-1.72-43.5-0.88-61.49-0.03-5.41 0.07-10.58 0.17-15.37 0.2-10.09 0.36-18.06-0.73-25.54-1.22-12.9-1.76-23.57-1.67-32.85 0.03-2.77-1.02-5.35-2.95-7.27-1.86-1.85-4.33-2.85-6.95-2.81-5.33 0.08-9.56 4.32-9.63 9.66-0.16 12.35-0.19 28 1.03 39.61 3.23 19.25 3.55 40.43 0.99 68.38-2.34 17.19-0.71 43.96 0.97 65.38l0.26 3.37-2.98 1.59c-9.33 5-15.03 14.66-14.88 25.21 0.11 7.6 3.19 14.67 8.69 19.92 5.49 5.25 12.7 8.02 20.3 7.79 2.33-0.07 4.63-0.45 6.85-1.12z"/> <path class="st2" d="m1396 1124.4c-6.46 45.58-49.9 71.17-88.48 92.64-95.99 53.45-199.64 69.26-307.52 71.37-37.38 0.74-69.19-2.21-99.97-5.79-36.07-4.19-73.01-6.26-107.91-17.11-33.86-10.52-63.27-30.48-94.68-46.32-42.94-21.67-84.43-44.85-92.67-93.44-0.97-5.69-1.47-11.76-1.47-18.19 0-40.52 28.23-87.75 78.6-108.08 15.54-6.3 32.42-14.8 50.64-23.38 30.68-14.47 65.11-29.07 103.09-33.19 51.11-5.56 106.74-15.84 164.38-16.21 63.1-0.4 122.38 6.7 174.56 18.42 42.47 9.54 80.71 24.68 113.87 39.65 7.6 3.42 14.94 6.83 22 10.18 51.41 24.35 84.1 73.11 86.24 112.6 0.32 5.9 0.05 11.53-0.68 16.85z"/> <path class="st0" d="m1396 1124.4c-342.79 79.64-654.76 31.15-791.24 1.34-0.97-5.69-1.47-11.76-1.47-18.19 0-40.52 28.23-87.75 78.6-108.08 15.54-6.3 32.42-14.8 50.64-23.38l255.24-4.45s151.11 2.21 300.65 13.13c7.6 3.42 14.94 6.83 22 10.18 51.41 24.35 84.1 73.11 86.24 112.6 0.34 5.9 0.07 11.53-0.66 16.85z"/> <path d="m988.28 1296.9c-30.98 0-58.45-2.39-89.24-5.96-7.02-0.81-14.08-1.55-21.15-2.28-29.22-3.04-59.44-6.18-88.29-15.15-24.36-7.57-46.5-19.87-67.91-31.76-9.15-5.08-18.62-10.34-28.04-15.1-44-22.21-98.77-49.86-98.77-119.1 0-39.5 26.24-92.61 83.85-115.85 11.19-4.52 23.23-10.29 35.98-16.4 34.98-16.78 74.63-35.8 120-40.72 14.67-1.59 29.49-3.55 45.17-5.62 38.6-5.1 78.52-10.37 120.02-10.63 60.4-0.37 119.78 5.89 176.46 18.61 51.95 11.67 96.84 31.14 137.61 50.44 50.27 23.8 88.55 74.15 91.04 119.72 3.49 63.99-49.05 92.86-95.41 118.33-5.65 3.11-11.24 6.17-16.63 9.26-26.59 15.21-52.84 29.47-81.65 36.77-12.85 3.25-25.85 5.06-38.43 6.81-15.8 2.19-30.72 4.27-45.46 8.96-30.91 9.85-62.97 9.66-96.9 9.46-9.89-0.06-20.12-0.12-30.4 0.08-4.02 0.09-7.96 0.13-11.85 0.13zm16.78-361.84c-1.68 0-3.36 0-5.05 0.02-40.46 0.25-79.84 5.45-117.93 10.48-15.79 2.09-30.7 4.05-45.56 5.67-42.51 4.62-80.79 22.98-114.56 39.17-12.99 6.23-25.27 12.12-36.95 16.83-50.41 20.34-73.37 66.26-73.37 100.32 0 54.6 38.82 78.53 89.57 104.15 9.72 4.91 19.33 10.25 28.63 15.41 21.62 12.01 42.03 23.35 64.74 30.41 27.27 8.47 56.65 11.53 85.05 14.48 7.13 0.74 14.26 1.48 21.34 2.3 33.98 3.93 63.79 6.42 98.82 5.74 10.49-0.2 20.83-0.14 30.82-0.08 32.57 0.19 63.34 0.37 91.72-8.67 16.11-5.13 32.44-7.4 48.24-9.6 12.69-1.76 24.67-3.43 36.62-6.45 26.76-6.78 51.9-20.46 77.44-35.07 5.48-3.13 11.14-6.25 16.89-9.4 44.09-24.22 89.67-49.27 86.76-102.74-1.86-34.14-30.45-81.34-81.49-105.5-39.9-18.89-83.75-37.93-134.11-49.23-53.84-12.11-110.22-18.24-167.62-18.24z"/> <ellipse class="st3" cx="1e3" cy="1008.8" rx="583.46" ry="118.89"/> <path d="m1e3 1134.4c-156.28 0-303.28-12.42-413.91-34.96-80.41-16.38-176.25-45.41-176.25-90.63s95.85-74.25 176.25-90.63c110.63-22.54 257.62-34.96 413.91-34.96s303.28 12.42 413.91 34.96c80.41 16.38 176.25 45.41 176.25 90.63s-95.85 74.25-176.25 90.63c-110.63 22.55-257.62 34.96-413.91 34.96zm0-237.79c-345.01 0-576.77 58.01-576.77 112.2s231.76 112.2 576.77 112.2 576.77-58.01 576.77-112.2-231.76-112.2-576.77-112.2z"/> <path class="st4" d="m1886.6 909.12c-6.3 27.13-42.07 56.67-99.91 71.2-55.33 13.9-129.11 31.21-215.62 54.66-83.33 22.57-184.64 18.05-291.71 33.29-86.31 12.29-179.08 8.27-279.52 9.14-83.56 0.74-154.73-2.21-223.59-5.79-116.52-6.03-227.04-8.27-323.09-32.59-78.34-19.83-147.43-34.63-216.79-50.2-81.28-18.25-124.05-58.58-124.05-92.27 0-5.73 1.27-11.62 3.78-17.55 15.1-35.8 75.39-73.08 172.11-90.53 66.51-11.99 143.95-32.22 231.79-45.25 35.67-5.33 73.08-9.41 112.16-11.32 114.31-5.56 238.73-15.84 367.67-16.21 141.2-0.4 273.83 6.7 390.58 18.42 28.77 2.88 56.67 6.3 83.66 10.05 82.56 11.49 156.47 26.29 220.31 39.79 115.04 24.35 188.19 73.11 192.98 112.6 0.51 4.09 0.24 8.31-0.76 12.56z"/> <path class="st5" d="m1886.6 909.12c-2.51-3.42-5.06-7.23-7.54-11.55-33.26-57.57-130.85-79.71-187.79-93.11s-286.12-53.95-286.12-53.95h-789.45s-143.08 24.75-297.57 50.61c-154.5 25.86-197.43 82.05-197.43 82.05l-4.59-4.15c15.1-35.8 75.39-73.08 172.11-90.53 66.51-11.99 143.95-32.22 231.79-45.25 35.67-5.33 73.08-9.41 112.16-11.32 114.31-5.56 238.73-15.84 367.67-16.21 141.2-0.4 273.83 6.7 390.58 18.42 28.77 2.88 56.67 6.3 83.66 10.05 82.56 11.49 156.47 26.29 220.31 39.79 115.04 24.35 188.19 73.11 192.98 112.6 0.5 4.08 0.23 8.3-0.77 12.55z"/> <path d="m974.49 1085.9c-73.93 0-138.99-2.81-198.64-5.92-15.51-0.8-30.92-1.54-46.21-2.27-99.99-4.77-194.44-9.28-278.51-30.56-63.05-15.96-120.58-28.76-176.22-41.14-13.49-3-26.91-5.99-40.35-9.01-90.21-20.26-130.59-65.04-130.59-100.44 0-49.85 73.46-96.6 182.78-116.32 25.46-4.59 52.59-10.41 81.32-16.56 45.19-9.69 96.42-20.67 150.74-28.73 39.39-5.88 76.35-9.61 112.98-11.4 32.91-1.6 66.07-3.56 101.17-5.63 85.98-5.08 174.88-10.33 266.89-10.59 133.96-0.36 265.62 5.83 391.44 18.46 27.44 2.75 54.91 6.05 83.98 10.09 83.04 11.55 158.26 26.65 220.89 39.89 111.81 23.66 193.87 72.92 199.56 119.78 4.55 37.08-40.42 76.15-106.94 92.89-15.04 3.78-31.45 7.81-49.1 12.15-46.09 11.33-103.45 25.42-166.37 42.47-50.29 13.62-106.78 17.52-166.59 21.64-40.79 2.81-82.97 5.72-126.14 11.86-66.92 9.53-137.49 9.34-212.18 9.14-22.25-0.06-45.24-0.12-68.45 0.08-8.61 0.08-17.09 0.12-25.46 0.12zm36.98-361.84c-3.86 0-7.71 0-11.58 0.02-91.53 0.26-180.2 5.5-265.95 10.56-35.15 2.08-68.34 4.03-101.34 5.64-36.07 1.76-72.49 5.44-111.33 11.24-53.8 7.98-104.74 18.9-149.69 28.54-28.87 6.19-56.13 12.03-81.86 16.67-110.96 20.01-169.01 65.37-169.01 99.84 0 28.68 40.36 66.78 117.51 84.1 13.43 3.02 26.84 6 40.32 9 55.75 12.41 113.41 25.24 176.69 41.26 82.44 20.87 176.07 25.34 275.2 30.07 15.3 0.73 30.74 1.47 46.28 2.27 66.14 3.44 138.93 6.52 223.08 5.78 23.3-0.2 46.35-0.14 68.64-0.08 74.08 0.2 144.05 0.38 209.77-8.98 43.77-6.23 86.26-9.16 127.34-11.99 58.96-4.06 114.65-7.9 163.36-21.09 63.1-17.1 120.57-31.22 166.75-42.57 17.62-4.33 34-8.36 49.02-12.13 65.25-16.42 97.34-50.7 94.4-74.62-3.98-32.83-70.66-80.93-186.4-105.43-62.34-13.18-137.2-28.2-219.73-39.69-28.85-4.01-56.11-7.28-83.34-10.01-121.6-12.21-248.77-18.4-378.13-18.4z"/> <g class="st0"> <path d="m1271.4 889.86c-38.15 5.02-105.87 38.52-229.58 36.84-123.72-1.71-217.9-1.67-374.47-51.44-156.61-49.8-148.2-127.74-148.2-127.74l0.94-4.29c35.67-5.33 73.08-9.41 112.16-11.32 114.31-5.56 238.73-15.84 367.67-16.21 141.2-0.4 273.83 6.7 390.58 18.42 28.77 2.88 56.67 6.3 83.66 10.05 7.24 66.95-164.61 140.67-202.76 145.69z"/> </g> <path class="st1" d="m1461.9 742.5c1.71 24.72-60.99 55.13-92.44 68.99-25.99 11.45-60.62 25.72-101.24 45.01-39.15 18.59-86.71 14.84-137.01 27.4-40.52 10.11-84.06 6.83-131.25 7.54-39.22 0.6-72.64-1.81-105-4.76-54.72-4.96-106.6-6.83-151.72-26.83-36.81-16.34-69.26-28.53-101.81-41.36-38.18-15.04-113.94-48.23-113.94-75.99 0-4.62 1.64-9.34 4.59-14.1 18.42-29.61 88.12-60.49 133.7-74.89 43.91-13.9 97.96-41.19 161.53-46.59 53.65-4.59 112.1-13.06 172.65-13.36 66.31-0.3 128.61 5.53 183.43 15.17 54.86 9.65 102.95 26.29 142.74 41.03 47.26 17.55 114.04 50.5 131.49 80.25v0.03c2.5 4.22 4.01 8.41 4.28 12.46z"/> <path class="st6" d="m1457.6 730.01v0.03l-4.05 13.06c-93.78-88.18-291.41-109.45-335.79-119.5-44.41-10.05-186.71-13.4-263.75 0-77.03 13.4-137.31 40.19-205.1 61.86s-113.06 57.04-113.06 57.04l-3.78-14.1c18.42-29.61 88.12-60.49 133.7-74.89 43.91-13.9 97.96-41.19 161.53-46.59 53.65-4.59 112.1-13.06 172.65-13.36 66.31-0.3 128.61 5.53 183.43 15.17 54.86 9.65 102.95 26.29 142.74 41.03 47.25 17.55 114.03 50.51 131.48 80.25z"/> <path d="m987.68 899.91c-32.45 0-61.23-1.97-93.5-4.89-7.25-0.66-14.45-1.26-21.59-1.86-47.5-3.98-92.36-7.74-132.76-25.66-29.54-13.1-56.54-23.65-82.64-33.84-6.3-2.46-12.57-4.91-18.84-7.38-79.12-31.16-119.24-59.35-119.24-83.77 0-50.83 138.24-95.13 144.13-96.99 11.81-3.73 24.48-8.5 37.9-13.54 36.62-13.77 78.13-29.38 125.45-33.4 15.44-1.31 31.02-2.93 47.52-4.63 40.49-4.19 82.35-8.52 125.82-8.74 63.31-0.25 125.51 4.83 184.91 15.29 54.41 9.58 101.46 25.58 144.2 41.44 14.11 5.23 137.91 52.51 141.22 100.01 0.57 8.22 2.31 33.23-97.4 77.21-7.14 3.15-14.93 6.51-23.31 10.12-22.67 9.78-48.37 20.86-77.74 34.81-24.47 11.62-51.46 14.88-80.03 18.33-18.98 2.29-38.6 4.66-58.52 9.63-32.17 8.03-65.69 7.88-101.17 7.72-10.41-0.05-21.16-0.09-31.99 0.07-4.22 0.04-8.35 0.07-12.42 0.07zm17.64-297.98c-1.78 0-3.55 0-5.33 0.01-42.64 0.21-84.09 4.5-124.17 8.65-16.58 1.72-32.24 3.34-47.83 4.67-45.01 3.83-85.37 19-120.98 32.39-13.63 5.12-26.51 9.96-38.74 13.83-63.96 20.23-132.43 57.61-132.43 81.03 0 11.72 28.45 36.61 108.63 68.19 6.26 2.47 12.52 4.91 18.8 7.36 26.28 10.26 53.46 20.87 83.34 34.13 37.82 16.78 81.32 20.42 127.37 24.28 7.18 0.6 14.42 1.21 21.71 1.87 35.78 3.25 67.18 5.28 104.13 4.73 10.99-0.17 21.83-0.12 32.32-0.07 34.4 0.17 66.9 0.31 97.04-7.22 20.93-5.23 41.08-7.66 60.57-10.01 27.18-3.28 52.85-6.38 74.86-16.83 29.64-14.08 56.61-25.71 78.29-35.06 8.34-3.6 16.09-6.94 23.19-10.07 65.65-28.95 88.14-50.81 87.45-60.73-1.72-24.74-68.44-62.5-130.34-85.47-42-15.59-88.18-31.3-141.28-40.64-56.75-9.98-116.14-15.04-176.6-15.04z"/> <path class="st0" d="m1150.2 629.6s-1.49 10.76 8.56 17.45c10.05 6.7 17.43-15.85 17.43-15.85l-25.99-1.6z"/> <path class="st4" d="m1204.1 481.54c-11.52-3.07-23.79 4.29-26.54 15.89-1.84 7.74 0.78 15.58 6.27 20.72l-6.65 23.53c-3.6 17.19-7.06 27.48-10.79 38.15-3.21 10.92-6.29 18.58-7.39 26.13-1.49 7.51-3.12 14.32-4.94 20.2-1.62 5.25 1.28 10.81 6.57 12.3 5.05 1.43 10.31-1.43 11.88-6.44 2.96-9.45 5.5-18.27 6.8-25.17 1.79-14.34 6.36-28.25 11.88-42.01 4.32-9.53 8.08-24.59 11.68-41.32 7.65-1.57 14.19-7.23 16.46-15.26 3.26-11.57-3.56-23.62-15.23-26.72z"/> <path class="st7" d="m1210.1 488.35s-21.2-5.41-24.55 7.99 3.35 23.44 3.35 23.44l-31.24 112.42-4.13-2.03 30.22-112.03-6.6-12.49 1.7-16.01 13.74-7.8h15.23l4.93 4.08-2.65 2.43z"/> <path d="m1163.3 642.18c-1.19 0-2.4-0.16-3.6-0.5-3.39-0.96-6.18-3.19-7.86-6.28-1.71-3.15-2.07-6.78-1-10.23 1.71-5.53 3.3-12.03 4.85-19.87 0.76-5.23 2.49-10.64 4.5-16.9 0.93-2.91 1.94-6.05 2.96-9.51 3.96-11.34 7.23-21.21 10.72-37.89l6.18-21.89c-5.46-6.05-7.67-14.47-5.77-22.45 1.52-6.41 5.72-12.08 11.53-15.55 5.8-3.47 12.78-4.49 19.13-2.8 6.51 1.73 11.93 5.91 15.26 11.76s4.16 12.64 2.32 19.12c-2.34 8.28-8.7 14.66-16.85 17.09-2.95 13.56-6.86 29.79-11.47 39.96-6.49 16.18-10.09 28.88-11.61 41.04-1.17 6.27-3.3 14.15-6.92 25.75-1.74 5.58-6.81 9.15-12.37 9.15zm35.48-157.98c-3.28 0-6.6 0.9-9.52 2.65-4.27 2.55-7.35 6.69-8.45 11.35-1.5 6.33 0.53 13.03 5.3 17.5l1.49 1.39-7.21 25.49c-3.52 16.82-7 27.33-10.85 38.34-0.98 3.36-2.01 6.55-2.96 9.51-1.99 6.23-3.57 11.14-4.28 15.99-1.63 8.24-3.28 14.96-5.05 20.71-0.53 1.71-0.36 3.51 0.48 5.06 0.81 1.49 2.16 2.57 3.79 3.03 3.33 0.94 6.74-0.91 7.77-4.21 2.39-7.64 5.31-17.35 6.7-24.78 1.56-12.55 5.29-25.76 12.06-42.64 4.64-10.24 8.59-27.16 11.52-40.77l0.46-2.14 2.14-0.44c6.72-1.38 12.05-6.32 13.91-12.89 1.34-4.74 0.74-9.7-1.7-13.98s-6.4-7.33-11.16-8.6c-1.44-0.38-2.94-0.57-4.44-0.57z"/> <path class="st0" d="m854.97 630.7s1.49 10.76-8.56 17.45-17.43-15.85-17.43-15.85l25.99-1.6z"/> <path class="st4" d="m801.15 482.64c11.52-3.07 23.79 4.29 26.54 15.89 1.84 7.74-0.78 15.58-6.27 20.72l6.65 23.53c3.6 17.19 7.06 27.48 10.79 38.15 3.21 10.92 6.29 18.58 7.39 26.13 1.49 7.51 3.12 14.32 4.94 20.2 1.62 5.25-1.28 10.81-6.57 12.3-5.05 1.43-10.31-1.43-11.88-6.44-2.96-9.45-5.5-18.27-6.8-25.17-1.79-14.34-6.36-28.25-11.88-42.01-4.32-9.53-8.08-24.59-11.68-41.32-7.65-1.57-14.19-7.23-16.46-15.26-3.27-11.57 3.55-23.61 15.23-26.72z"/> <path class="st7" d="m795.07 489.45s21.2-5.41 24.55 7.99-3.35 23.44-3.35 23.44l31.23 112.42 4.13-2.03-30.22-112.03 6.6-12.49-1.7-16.01-13.74-7.8h-15.23l-4.93 4.08 2.66 2.43z"/> <path d="m841.93 643.28c1.19 0 2.4-0.16 3.6-0.5 3.39-0.96 6.18-3.19 7.86-6.28 1.71-3.15 2.07-6.78 1-10.23-1.71-5.53-3.3-12.03-4.85-19.87-0.76-5.23-2.49-10.64-4.5-16.9-0.93-2.91-1.94-6.05-2.96-9.51-3.96-11.34-7.23-21.21-10.72-37.89l-6.18-21.89c5.46-6.05 7.67-14.47 5.77-22.45-1.52-6.41-5.72-12.08-11.53-15.55-5.8-3.47-12.78-4.49-19.13-2.8-6.51 1.73-11.93 5.91-15.26 11.76s-4.16 12.64-2.32 19.12c2.34 8.28 8.7 14.66 16.85 17.09 2.95 13.56 6.86 29.79 11.47 39.96 6.49 16.18 10.09 28.88 11.61 41.04 1.17 6.27 3.3 14.15 6.92 25.75 1.74 5.59 6.82 9.15 12.37 9.15zm-35.47-157.98c3.28 0 6.6 0.9 9.52 2.65 4.27 2.55 7.35 6.69 8.45 11.35 1.5 6.33-0.53 13.03-5.3 17.5l-1.49 1.39 7.21 25.49c3.52 16.82 7 27.33 10.85 38.34 0.98 3.36 2.01 6.55 2.96 9.51 2 6.23 3.57 11.14 4.28 15.99 1.63 8.24 3.28 14.96 5.05 20.71 0.53 1.71 0.36 3.51-0.48 5.06-0.81 1.49-2.16 2.57-3.79 3.03-3.33 0.94-6.74-0.91-7.77-4.21-2.39-7.64-5.31-17.35-6.7-24.78-1.56-12.55-5.29-25.76-12.06-42.64-4.64-10.24-8.59-27.16-11.52-40.77l-0.46-2.14-2.14-0.44c-6.72-1.38-12.05-6.32-13.91-12.89-1.34-4.74-0.74-9.7 1.7-13.98 2.43-4.28 6.4-7.33 11.16-8.6 1.44-0.38 2.93-0.57 4.44-0.57z"/> <path class="st0" d="m999.92 718.15c-25.09 0-46.49 10.26-57.24 27.43-2.21 3.53-4.35 7.05-6.33 10.6-6.26 11.27-10.79 22.84-9.96 35.85 1.25 19.58 9.82 39.1 23.51 53.55 11.2 11.82 27.93 18.43 49.71 19.64 1.35 0.08 2.69 0.11 4.03 0.11 10.78 0 20.84-2.45 29.81-7.23 5.51-2.92 10.6-6.73 15.22-11.37 16.21-16.33 24.79-35.37 24.79-55.04 0-40.54-32.99-73.54-73.54-73.54zm0.3 136.19c-18.91-1.05-33.18-6.51-42.41-16.25-11.97-12.63-19.45-29.67-20.54-46.75-0.54-8.5 1.99-16.65 5.92-24.71 2.49-5.1 5.55-10.17 8.73-15.27 8.61-13.77 27.01-22.32 48-22.32 34.54 0 62.64 28.1 62.64 62.64 0 21.15-11.76 37.43-21.63 47.37-5.45 5.49-11.74 9.56-18.67 12.12-6.79 2.53-14.2 3.6-22.04 3.17z"/> <path d="m999.92 724.66c-22.87 0-42.38 9.35-52.18 25.01-2.01 3.21-3.97 6.43-5.77 9.67-5.71 10.27-9.84 20.82-9.08 32.68 1.14 17.85 8.95 35.64 21.43 48.81 10.21 10.78 25.46 16.8 45.32 17.9 1.23 0.07 2.45 0.1 3.67 0.1 9.83 0 19-2.23 27.17-6.59 5.02-2.67 9.67-6.13 13.88-10.37 14.78-14.89 22.6-32.24 22.6-50.18-0.01-36.96-30.08-67.03-67.04-67.03zm0.27 124.14c-17.24-0.95-30.25-5.94-38.66-14.81-10.91-11.51-17.73-27.04-18.73-42.61-0.5-7.75 1.81-15.18 5.39-22.53 2.27-4.65 5.06-9.27 7.96-13.92 7.85-12.55 24.62-20.35 43.75-20.35 31.49 0 57.1 25.62 57.1 57.1 0 19.28-10.72 34.12-19.71 43.18-4.97 5-10.7 8.71-17.02 11.05-6.17 2.31-12.93 3.29-20.08 2.89z"/> <path class="st4" d="m1061.3 791.7c0 18.39-8.9 34.04-20.91 46.14-10.79 10.86-24.94 16.08-40.44 15.22-15.98-0.89-31.3-5.4-41.51-16.17-10.92-11.52-18.73-27.63-19.85-45.19-0.89-13.97 6.1-26.41 13.94-38.94 9.4-15.02 28.31-22.41 47.41-22.41 33.89-0.01 61.36 27.46 61.36 61.35z"/> <path class="st8" d="m1042.8 791.65c0 23.74-19.26 43-43 43-10.72 0-20.55-3.93-28.08-10.46h-0.03c-9.12-7.88-14.9-19.54-14.9-32.54 0-18.52 11.71-34.28 28.13-40.34 0.03-0.03 0.05-0.03 0.08-0.03 4.61-1.7 9.6-2.64 14.8-2.64 23.74 0.01 43 19.26 43 43.01z"/> <path class="st9" d="m1002.3 753.64c-2.62 2.54-29.07 10.36-30.41 32.94-1.21 20.39 19.84 49.87-0.2 37.6h-0.03c-9.12-7.88-14.9-19.54-14.9-32.54 0-18.52 11.71-34.28 28.13-40.34h0.03s0.03 0 0.05-0.03c1.07-0.24 26.18-6.2 17.33 2.37z"/> <path d="m999.81 838.45c-10.77 0-21.17-3.71-29.46-10.46h-0.03l-1.09-0.92c-10.31-8.9-16.22-21.81-16.22-35.41 0-19.24 11.97-36.67 29.86-43.62l0.54-0.52 0.9-0.01c4.98-1.76 10.19-2.65 15.49-2.65 25.81 0 46.8 21 46.8 46.8s-20.98 46.79-46.79 46.79zm-26.24-17.7 0.66 0.56c7.08 6.15 16.16 9.53 25.58 9.53 21.62 0 39.2-17.58 39.2-39.2s-17.58-39.2-39.2-39.2c-4.62 0-9.16 0.81-13.48 2.4l-0.54 0.2c-15.08 5.78-25.18 20.42-25.18 36.6 0 11.12 4.71 21.68 12.96 29.11z"/> <path d="m978.65 777.85c-0.8 1.78-1.33 3.67-1.55 5.61-0.25 2.21-0.17 4.47-0.18 6.68-0.01 2.58-0.02 5.17 0.04 7.75 0.01 0.69 0.04 1.37 0.1 2.05-0.05-0.58 0.04-1.3 0.04-1.86 0.02-1.49 0.02-2.99 0.02-4.48s0-2.99-0.02-4.48c-0.01-0.62 0.01-1.24-0.04-1.86-0.01-0.11-0.02-0.23-0.03-0.34 0.01 0.08 0.01 0.15 0.02 0.23l-0.03-0.51c0-0.06 0-0.11-0.01-0.17 0.04 1.81 0.04 3.62 0.01 5.43 0.03 1.76 0.03 3.52 0 5.28-0.01 0.21 0 0.2 0-0.02l0.03-0.51c-0.01 0.08-0.01 0.15-0.02 0.23 0.17-2.2 0.71-4.35 1.62-6.37 0.02-0.18 0.03-0.36 0.02-0.55 0.01-0.44 0.02-0.87 0.02-1.31 0.02-1.49 0.02-2.99 0.02-4.48s0-2.99-0.02-4.48c0-0.33-0.01-0.66-0.01-0.99 0.01-0.27 0-0.56-0.03-0.85z"/> <path class="st0" d="m1273.4 668.72c-25.09 0-46.49 10.26-57.24 27.43-2.21 3.53-4.35 7.05-6.33 10.6-6.26 11.27-10.79 22.84-9.96 35.85 1.25 19.58 9.82 39.1 23.51 53.55 11.2 11.82 27.93 18.43 49.71 19.64 1.35 0.08 2.69 0.11 4.03 0.11 10.78 0 20.84-2.45 29.81-7.23 5.51-2.92 10.6-6.73 15.22-11.37 16.21-16.33 24.79-35.37 24.79-55.04 0-40.54-32.98-73.54-73.54-73.54zm0.31 136.19c-18.91-1.05-33.18-6.51-42.41-16.25-11.97-12.63-19.45-29.67-20.54-46.75-0.55-8.5 1.99-16.65 5.92-24.71 2.49-5.1 5.55-10.17 8.73-15.27 8.61-13.77 27.01-22.32 48-22.32 34.54 0 62.64 28.1 62.64 62.64 0 21.15-11.76 37.43-21.63 47.37-5.45 5.49-11.74 9.56-18.67 12.12-6.79 2.53-14.2 3.61-22.04 3.17z"/> <path d="m1273.4 675.23c-22.87 0-42.38 9.35-52.18 25.01-2.01 3.21-3.97 6.43-5.77 9.67-5.71 10.27-9.84 20.82-9.08 32.68 1.14 17.85 8.95 35.64 21.43 48.81 10.21 10.78 25.46 16.8 45.32 17.9 1.23 0.07 2.45 0.1 3.67 0.1 9.83 0 19-2.23 27.17-6.59 5.02-2.67 9.67-6.13 13.88-10.37 14.78-14.89 22.6-32.24 22.6-50.18 0-36.95-30.07-67.03-67.04-67.03zm0.28 124.15c-17.24-0.95-30.25-5.94-38.66-14.81-10.91-11.51-17.73-27.04-18.73-42.61-0.5-7.75 1.81-15.18 5.39-22.53 2.27-4.65 5.06-9.27 7.96-13.92 7.85-12.55 24.62-20.35 43.75-20.35 31.49 0 57.1 25.62 57.1 57.1 0 19.28-10.72 34.12-19.71 43.18-4.97 5-10.7 8.71-17.02 11.05-6.18 2.3-12.94 3.28-20.08 2.89z"/> <path class="st4" d="m1334.7 742.27c0 18.39-8.9 34.04-20.91 46.14-10.79 10.86-24.94 16.07-40.44 15.22-15.98-0.89-31.3-5.4-41.51-16.17-10.92-11.52-18.73-27.63-19.85-45.19-0.89-13.97 6.1-26.41 13.94-38.94 9.4-15.02 28.31-22.41 47.41-22.41 33.89 0 61.36 27.46 61.36 61.35z"/> <path class="st8" d="m1316.2 742.22c0 23.74-19.26 43-43 43-10.72 0-20.55-3.93-28.08-10.46h-0.03c-9.12-7.88-14.9-19.54-14.9-32.54 0-18.52 11.71-34.28 28.13-40.34 0.03-0.03 0.05-0.03 0.08-0.03 4.61-1.7 9.6-2.64 14.8-2.64 23.74 0.01 43 19.27 43 43.01z"/> <path class="st9" d="m1275.8 704.21c-2.62 2.54-29.07 10.36-30.41 32.94-1.21 20.39 19.84 49.87-0.2 37.6h-0.03c-9.12-7.88-14.9-19.54-14.9-32.54 0-18.52 11.71-34.28 28.13-40.34h0.03s0.03 0 0.05-0.03c1.06-0.24 26.18-6.2 17.33 2.37z"/> <path d="m1273.2 789.02c-10.77 0-21.17-3.71-29.46-10.46h-0.03l-1.09-0.92c-10.31-8.9-16.22-21.81-16.22-35.41 0-19.24 11.97-36.67 29.86-43.62l0.54-0.52 0.9-0.01c4.98-1.76 10.19-2.65 15.49-2.65 25.81 0 46.8 21 46.8 46.8s-20.99 46.79-46.79 46.79zm-26.25-17.69 0.66 0.56c7.08 6.15 16.16 9.53 25.58 9.53 21.62 0 39.2-17.58 39.2-39.2s-17.58-39.2-39.2-39.2c-4.62 0-9.16 0.81-13.48 2.4l-0.54 0.2c-15.08 5.78-25.18 20.42-25.18 36.6 0.01 11.11 4.72 21.67 12.96 29.11z"/> <path d="m1252.1 728.42c-0.8 1.78-1.33 3.67-1.55 5.61-0.25 2.21-0.17 4.47-0.18 6.68-0.01 2.58-0.02 5.17 0.04 7.75 0.01 0.69 0.04 1.37 0.1 2.05-0.05-0.58 0.04-1.3 0.04-1.86 0.02-1.49 0.02-2.99 0.02-4.48s0-2.99-0.02-4.48c-0.01-0.62 0.01-1.24-0.04-1.86-0.01-0.11-0.02-0.23-0.03-0.34 0.01 0.08 0.01 0.15 0.02 0.23l-0.03-0.51c0-0.06 0-0.11-0.01-0.17 0.04 1.81 0.04 3.62 0.01 5.43 0.03 1.76 0.03 3.52 0 5.28-0.01 0.21 0 0.2 0-0.02l0.03-0.51c-0.01 0.08-0.01 0.15-0.02 0.23 0.17-2.2 0.71-4.35 1.62-6.37 0.02-0.18 0.03-0.36 0.02-0.55 0.01-0.44 0.02-0.87 0.02-1.31 0.02-1.49 0.02-2.99 0.02-4.48s0-2.99-0.02-4.48c0-0.33-0.01-0.66-0.01-0.99 0.01-0.27-0.01-0.56-0.03-0.85z"/> <path class="st0" d="m735.95 668.72c-25.09 0-46.49 10.26-57.24 27.43-2.21 3.53-4.35 7.05-6.33 10.6-6.26 11.27-10.79 22.84-9.96 35.85 1.25 19.58 9.82 39.1 23.51 53.55 11.2 11.82 27.93 18.43 49.71 19.64 1.35 0.08 2.69 0.11 4.03 0.11 10.78 0 20.84-2.45 29.81-7.23 5.51-2.92 10.6-6.73 15.22-11.37 16.21-16.33 24.79-35.37 24.79-55.04 0-40.54-32.99-73.54-73.54-73.54zm0.3 136.19c-18.91-1.05-33.18-6.51-42.41-16.25-11.97-12.63-19.45-29.67-20.54-46.75-0.54-8.5 1.99-16.65 5.92-24.71 2.49-5.1 5.55-10.17 8.73-15.27 8.61-13.77 27.01-22.32 48-22.32 34.54 0 62.64 28.1 62.64 62.64 0 21.15-11.76 37.43-21.63 47.37-5.45 5.49-11.74 9.56-18.67 12.12-6.79 2.53-14.2 3.61-22.04 3.17z"/> <path d="m735.95 675.23c-22.87 0-42.38 9.35-52.18 25.01-2.01 3.21-3.97 6.43-5.77 9.67-5.71 10.27-9.84 20.82-9.08 32.68 1.14 17.85 8.95 35.64 21.43 48.81 10.21 10.78 25.46 16.8 45.32 17.9 1.23 0.07 2.45 0.1 3.67 0.1 9.83 0 19-2.23 27.17-6.59 5.02-2.67 9.67-6.13 13.88-10.37 14.78-14.89 22.6-32.24 22.6-50.18-0.01-36.95-30.08-67.03-67.04-67.03zm0.27 124.15c-17.24-0.95-30.25-5.94-38.66-14.81-10.91-11.51-17.73-27.04-18.73-42.61-0.5-7.75 1.81-15.18 5.39-22.53 2.27-4.65 5.06-9.27 7.96-13.92 7.85-12.55 24.62-20.35 43.75-20.35 31.49 0 57.1 25.62 57.1 57.1 0 19.28-10.72 34.12-19.71 43.18-4.97 5-10.7 8.71-17.02 11.05-6.17 2.3-12.93 3.28-20.08 2.89z"/> <path class="st4" d="m797.3 742.27c0 18.39-8.9 34.04-20.91 46.14-10.79 10.86-24.94 16.07-40.44 15.22-15.98-0.89-31.3-5.4-41.51-16.17-10.92-11.52-18.73-27.63-19.85-45.19-0.89-13.97 6.1-26.41 13.94-38.94 9.4-15.02 28.31-22.41 47.41-22.41 33.89 0 61.36 27.46 61.36 61.35z"/> <path class="st8" d="m778.84 742.22c0 23.74-19.26 43-43 43-10.72 0-20.55-3.93-28.08-10.46h-0.03c-9.12-7.88-14.9-19.54-14.9-32.54 0-18.52 11.71-34.28 28.13-40.34 0.03-0.03 0.05-0.03 0.08-0.03 4.61-1.7 9.6-2.64 14.8-2.64 23.74 0.01 43 19.27 43 43.01z"/> <path class="st9" d="m738.38 704.21c-2.62 2.54-29.07 10.36-30.41 32.94-1.21 20.39 19.84 49.87-0.2 37.6h-0.03c-9.12-7.88-14.9-19.54-14.9-32.54 0-18.52 11.71-34.28 28.13-40.34h0.03s0.03 0 0.05-0.03c1.06-0.24 26.17-6.2 17.33 2.37z"/> <path d="m735.84 789.02c-10.77 0-21.17-3.71-29.46-10.46h-0.03l-1.09-0.92c-10.31-8.9-16.22-21.81-16.22-35.41 0-19.24 11.97-36.67 29.86-43.62l0.54-0.52 0.9-0.01c4.98-1.76 10.19-2.65 15.49-2.65 25.81 0 46.8 21 46.8 46.8s-20.98 46.79-46.79 46.79zm-26.24-17.69 0.66 0.56c7.08 6.15 16.16 9.53 25.58 9.53 21.62 0 39.2-17.58 39.2-39.2s-17.58-39.2-39.2-39.2c-4.62 0-9.16 0.81-13.48 2.4l-0.54 0.2c-15.08 5.78-25.18 20.42-25.18 36.6 0 11.11 4.71 21.67 12.96 29.11z"/> <path d="m714.68 728.42c-0.8 1.78-1.33 3.67-1.55 5.61-0.25 2.21-0.17 4.47-0.18 6.68-0.01 2.58-0.02 5.17 0.04 7.75 0.01 0.69 0.04 1.37 0.1 2.05-0.05-0.58 0.04-1.3 0.04-1.86 0.02-1.49 0.02-2.99 0.02-4.48s0-2.99-0.02-4.48c-0.01-0.62 0.01-1.24-0.04-1.86-0.01-0.11-0.02-0.23-0.03-0.34 0.01 0.08 0.01 0.15 0.02 0.23l-0.03-0.51c0-0.06 0-0.11-0.01-0.17 0.04 1.81 0.04 3.62 0.01 5.43 0.03 1.76 0.03 3.52 0 5.28-0.01 0.21 0 0.2 0-0.02l0.03-0.51c-0.01 0.08-0.01 0.15-0.02 0.23 0.17-2.2 0.71-4.35 1.62-6.37 0.02-0.18 0.03-0.36 0.02-0.55 0.01-0.44 0.02-0.87 0.02-1.31 0.02-1.49 0.02-2.99 0.02-4.48s0-2.99-0.02-4.48c0-0.33-0.01-0.66-0.01-0.99 0.01-0.27 0-0.56-0.03-0.85z"/> <path d="m330.4 945.12c-27.2-1.67-53.59-10.31-76.51-25.04 1.32 0.85 1.32 3.76 2.67 4.63 22.92 14.74 49.32 23.38 76.51 25.04-0.94-0.06-1.65-4.57-2.67-4.63z"/> <path d="m1232.8 1205.6c-23.82 13.22-50.72 20.14-77.97 20.04 1.56 0.01 3.14 2.46 4.74 2.46 27.25 0.1 54.15-6.82 77.97-20.04-0.83 0.46-3.85-2.96-4.74-2.46z"/> <path d="m289.33 843.13c9.28-3.78 18.89-6.65 28.72-8.57-0.16 0.03-0.31 0.06-0.47 0.09 2.44-0.46 4.88-0.89 7.34-1.22-0.46 0.06 2.87-0.21 1.33-0.26-1.93-0.06-4.23 0.42-6.11 0.63-6.05 0.67-12.11 1.35-18.15 2.16-13.47 1.82-26.6 5.12-39.2 10.26 0.84-0.34 3.24-0.29 3.9-0.36 3.13-0.33 6.26-0.69 9.39-1.05 3.13-0.37 6.25-0.73 9.38-1.13 1.18-0.15 2.76-0.1 3.87-0.55z"/> <path d="m848.63 672.33c9.28-3.78 18.89-6.65 28.72-8.57-0.16 0.03-0.31 0.06-0.47 0.09 2.44-0.46 4.88-0.89 7.34-1.22-0.46 0.06 2.87-0.21 1.33-0.26-1.93-0.06-4.23 0.42-6.11 0.63-6.05 0.67-12.11 1.35-18.15 2.16-13.47 1.82-26.6 5.12-39.2 10.26 0.84-0.34 3.24-0.29 3.9-0.36 3.13-0.33 6.26-0.69 9.39-1.05 3.13-0.37 6.25-0.73 9.38-1.13 1.19-0.16 2.77-0.1 3.87-0.55z"/> <path d="m1704.6 838.71c-0.79-0.49-1.59-0.96-2.39-1.44 16.33 8.81 21.33 11.59 15 8.36-0.31-0.15-0.62-0.31-0.93-0.46-2.02-1-4.07-1.94-6.15-2.82-3.97-1.69-8.02-3.17-12.13-4.46-8.07-2.52-16.37-4.2-24.78-5.11-0.87-0.09-2.96-1.54-3.47-1.81-2.77-1.5-5.53-3.02-8.28-4.54-2.75-1.53-5.51-3.06-8.24-4.61-0.86-0.49-2.46-1.88-3.38-1.98 11.5 1.25 22.79 3.97 33.56 8.2 5.23 2.05 10.28 4.47 15.24 7.1 9.61 5.11 19.24 10.29 28.51 15.99 1.48 0.91-1.98-0.96-1.23-0.56-2.35-1.24-4.68-2.53-7.01-3.81-4.78-2.64-9.66-5.18-14.32-8.05z"/> <path d="m1418.2 960.32c55.73-10.95 111.46-21.91 167.19-32.86 8.72-1.71 17-5.66 25.68-7.36-55.73 10.95-111.46 21.91-167.19 32.86-8.72 1.71-16.99 5.66-25.68 7.36z"/> <path d="m605.32 938.56c58.9 9.55 117.8 19.09 176.7 28.64 8.76 1.42 17.95 0.15 26.67 1.56-58.9-9.55-117.8-19.09-176.7-28.64-8.76-1.42-17.95-0.15-26.67-1.56z"/> <path d="m1272.4 1019.9c-19.23 2.99-38.55 5.38-57.94 7.06-10.18 0.88-20.38 1.57-30.58 2.08-4.75 0.23-9.5 0.43-14.26 0.58-3.01 0.1-6.02 0.18-9.03 0.24-0.68 0.01-7.35 0.08-5.07 0.1-6.08-0.04-12.2-0.24-18.28 0.05-0.27 0.01-2.61-0.05-1.35 0.1 2 0.24 4.14 0.07 6.14 0.08 52.68 0.33 104.98-2.17 157.08-10.29-8.65 1.35-17.99-1.36-26.71 0z"/> <path d="m380.56 949.53c-7.33-0.26-14.61-1.27-21.74-3.02 0.03 0.01 0.36 0.8 0.32 0.71l0.81 1.71c0.27 0.57 0.55 1.14 0.83 1.7 0.06 0.11 0.25 0.67 0.36 0.7 7.13 1.75 14.41 2.77 21.74 3.02-0.17-0.01-1.02-2.18-1.13-2.42-0.13-0.27-0.9-2.39-1.19-2.4z"/> <path d="m1279.2 1185.2c-6.32 3.73-13 6.79-19.95 9.15 0.03-0.01 0.73 0.48 0.66 0.43 0.53 0.34 1.07 0.67 1.6 1 0.54 0.33 1.07 0.66 1.61 0.99 0.11 0.07 0.57 0.43 0.68 0.4 6.95-2.35 13.63-5.42 19.95-9.15-0.15 0.09-2.03-1.29-2.26-1.43-0.26-0.16-2.05-1.53-2.29-1.39z"/> <path d="m1177.7 805.51c-7.33-0.26-14.61-1.27-21.74-3.02 0.03 0.01 0.36 0.8 0.32 0.71l0.81 1.71c0.27 0.57 0.55 1.14 0.83 1.7 0.06 0.11 0.25 0.67 0.36 0.7 7.13 1.75 14.41 2.77 21.74 3.02-0.17-0.01-1.02-2.18-1.13-2.42-0.14-0.27-0.91-2.39-1.19-2.4z"/> <path d="m779.11 1204.1c-7.33-0.26-14.61-1.27-21.74-3.02 0.03 0.01 0.36 0.8 0.32 0.71l0.81 1.71c0.27 0.57 0.55 1.14 0.83 1.7 0.06 0.11 0.25 0.67 0.36 0.7 7.13 1.75 14.41 2.77 21.74 3.02-0.17-0.01-1.02-2.18-1.13-2.42-0.13-0.27-0.9-2.39-1.19-2.4z"/> <path d="m1536 808.86c-7.33-0.26-14.61-1.27-21.74-3.02 0.03 0.01 0.36 0.8 0.32 0.71l0.81 1.71c0.27 0.57 0.55 1.14 0.83 1.7 0.06 0.11 0.25 0.67 0.36 0.7 7.13 1.75 14.41 2.77 21.74 3.02-0.17-0.01-1.02-2.18-1.13-2.42-0.14-0.27-0.91-2.39-1.19-2.4z"/> <path d="m786.38 829.61c23.31 4.78 46.47 10.28 69.43 16.53 6.44 1.75 12.87 3.56 19.28 5.43 1.95 0.57 2.79-2.48 0.84-3.04-22.85-6.65-45.9-12.58-69.12-17.77-6.52-1.46-13.04-2.85-19.58-4.19-1.99-0.4-2.84 2.64-0.85 3.04z"/> <path d="m887.74 852.71c1.08 0.54 2.16 1.08 3.23 1.62 0.38 0.19 0.79 0.28 1.22 0.16 0.37-0.1 0.76-0.38 0.94-0.72 0.19-0.37 0.29-0.81 0.16-1.22-0.12-0.38-0.36-0.76-0.72-0.94-1.08-0.54-2.16-1.08-3.23-1.62-0.38-0.19-0.79-0.28-1.22-0.16-0.37 0.1-0.76 0.38-0.94 0.72-0.19 0.37-0.29 0.81-0.16 1.22 0.11 0.37 0.35 0.76 0.72 0.94z"/> <path d="m1119.7 1026h-1.62c-0.22-0.01-0.42 0.04-0.61 0.14-0.2 0.06-0.36 0.17-0.51 0.33-0.15 0.14-0.26 0.31-0.33 0.51-0.1 0.19-0.14 0.39-0.14 0.61l0.06 0.42c0.07 0.27 0.21 0.5 0.41 0.7 0.31 0.28 0.69 0.46 1.12 0.46h1.62c0.22 0.01 0.42-0.04 0.61-0.14 0.2-0.06 0.36-0.17 0.51-0.33 0.15-0.14 0.26-0.31 0.33-0.51 0.1-0.19 0.14-0.39 0.14-0.61l-0.06-0.42c-0.07-0.27-0.21-0.5-0.41-0.7-0.32-0.28-0.7-0.46-1.12-0.46z"/> <path d="m831.58 973.83c3.23 0.56 6.46 1.11 9.69 1.67 0.81 0.14 1.74-0.22 1.94-1.1 0.17-0.77-0.23-1.79-1.1-1.94-3.23-0.56-6.46-1.11-9.69-1.67-0.81-0.14-1.74 0.22-1.94 1.1-0.18 0.77 0.23 1.79 1.1 1.94z"/> <path d="m346.9 831.91c2.03 0 2.03-3.16 0-3.16s-2.03 3.16 0 3.16z"/> <path d="m1408.7 740.61c2.69 0.54 5.39 1.09 8.08 1.63 0.81 0.16 1.74-0.23 1.94-1.1 0.18-0.79-0.24-1.77-1.1-1.94-2.69-0.54-5.39-1.09-8.08-1.63-0.81-0.16-1.74 0.23-1.94 1.1-0.18 0.79 0.24 1.77 1.1 1.94z"/> <path d="m1743.8 863.43c2.03 0 2.03-3.16 0-3.16-2.03 0.01-2.03 3.16 0 3.16z"/> </svg>