<svg xmlns="http://www.w3.org/2000/svg" width="24" height="24" viewBox="0 0 24 24"><g fill="none" stroke="#fffb00" stroke-linecap="round" stroke-linejoin="round" stroke-width="3"><path d="M17.252 12.49c-.284 2.365-1.833 3.31-2.502 3.996c-.67.688-.55.825-.505 1.834a.916.916 0 0 1-.916.971h-2.658a.92.92 0 0 1-.917-.971c0-.99.092-1.22-.504-1.834c-.76-.76-2.548-1.833-2.548-4.784a5.307 5.307 0 1 1 10.55.788"/><path d="M10.46 19.236v1.512c0 .413.23.752.513.752h2.053c.285 0 .514-.34.514-.752v-1.512m-2.32-10.54a2.227 2.227 0 0 0-2.226 2.227m10.338.981h1.834m-3.68-6.012l1.301-1.301M18.486 17l1.301 1.3M12 2.377V3.86m-6.76.73l1.292 1.302M4.24 18.3L5.532 17m-.864-5.096H2.835"/></g></svg>